<svg width="424" height="350" viewBox="0 0 424 350" fill="none" xmlns="http://www.w3.org/2000/svg">
<path d="M8.48083 167.587C47.0137 64.1048 244.629 50.6572 319.93 49.3369C330.663 49.1487 335.458 61.9518 327.551 69.2127L35.4389 337.463C29.0297 343.349 18.841 340.667 16.5488 332.273C7.0126 297.351 -10.5234 218.625 8.48083 167.587Z" fill="url(#paint0_linear_1748_88)"/>
<path d="M153.63 280.219C192.686 289.759 280.267 306.043 328.195 274.903C389.937 234.788 391.208 137.029 407.105 57.4883C409.676 44.6236 389.934 32.284 380.412 41.3083L148.782 260.822C142.128 267.128 144.725 278.043 153.63 280.219Z" fill="url(#paint1_linear_1748_88)"/>
<defs>
<linearGradient id="paint0_linear_1748_88" x1="291.259" y1="0.502178" x2="87.3319" y2="360.682" gradientUnits="userSpaceOnUse">
<stop stop-color="#81FF7E"/>
<stop offset="1" stop-color="#A4F263"/>
</linearGradient>
<linearGradient id="paint1_linear_1748_88" x1="291.255" y1="0.502161" x2="197.057" y2="351.751" gradientUnits="userSpaceOnUse">
<stop stop-color="#43931E"/>
<stop offset="1" stop-color="#30B502"/>
</linearGradient>
</defs>
</svg>
